<?xml version="1.0" encoding="UTF-8" standalone="no"?>
<!DOCTYPE svg PUBLIC "-//W3C//DTD SVG 1.1//EN" "http://www.w3.org/Graphics/SVG/1.1/DTD/svg11.dtd">
<svg width="100%" height="100%" viewBox="0 0 1200 240" version="1.1" xmlns="http://www.w3.org/2000/svg" xmlns:xlink="http://www.w3.org/1999/xlink" xml:space="preserve" xmlns:serif="http://www.serif.com/" style="fill-rule:evenodd;clip-rule:evenodd;stroke-linecap:square;stroke-linejoin:round;stroke-miterlimit:1.5;">
    <g transform="matrix(3.34782,0,0,3.1508,-999.551,-240.673)">
        <g transform="matrix(63.4759,0,0,63.4759,413.774,131.129)">
            <path d="M0.501,-0.271C0.501,-0.09 0.411,-0 0.231,-0L0.069,-0L0.069,-0.534L0.231,-0.534C0.321,-0.534 0.389,-0.512 0.434,-0.469C0.479,-0.426 0.501,-0.36 0.501,-0.271ZM0.459,-0.271C0.459,-0.307 0.456,-0.338 0.449,-0.366C0.442,-0.393 0.43,-0.417 0.412,-0.436C0.395,-0.456 0.371,-0.47 0.342,-0.48C0.312,-0.491 0.275,-0.496 0.23,-0.496L0.108,-0.496L0.108,-0.039L0.23,-0.039C0.275,-0.039 0.312,-0.044 0.341,-0.055C0.371,-0.065 0.394,-0.08 0.412,-0.1C0.429,-0.12 0.442,-0.145 0.449,-0.173C0.456,-0.202 0.459,-0.235 0.459,-0.271Z" style="fill:rgb(139,53,119);fill-rule:nonzero;"/>
        </g>
        <g transform="matrix(63.4759,0,0,63.4759,448.549,131.129)">
            <path d="M0.237,-0.348C0.233,-0.349 0.229,-0.349 0.225,-0.349L0.211,-0.349C0.2,-0.349 0.189,-0.347 0.179,-0.342C0.168,-0.338 0.158,-0.332 0.149,-0.324C0.139,-0.317 0.131,-0.309 0.123,-0.3C0.114,-0.29 0.107,-0.281 0.102,-0.271L0.102,-0L0.063,-0L0.063,-0.378L0.102,-0.378L0.102,-0.326C0.113,-0.339 0.124,-0.35 0.135,-0.358C0.145,-0.366 0.156,-0.372 0.166,-0.377C0.177,-0.382 0.186,-0.385 0.196,-0.386C0.205,-0.387 0.214,-0.388 0.222,-0.388C0.224,-0.388 0.227,-0.388 0.229,-0.388C0.231,-0.388 0.234,-0.388 0.237,-0.387L0.237,-0.348Z" style="fill:rgb(139,53,119);fill-rule:nonzero;"/>
        </g>
        <g transform="matrix(63.4759,0,0,63.4759,464.325,131.129)">
            <path d="M0.106,-0L0.067,-0L0.067,-0.378L0.106,-0.378L0.106,-0ZM0.106,-0.474L0.067,-0.474L0.067,-0.535L0.106,-0.535L0.106,-0.474Z" style="fill:rgb(139,53,119);fill-rule:nonzero;"/>
        </g>
        <g transform="matrix(63.4759,0,0,63.4759,475.111,131.129)">
            <path d="M0.348,-0.378L0.204,-0L0.169,-0L0.025,-0.378L0.065,-0.378L0.187,-0.054L0.309,-0.378L0.348,-0.378Z" style="fill:rgb(139,53,119);fill-rule:nonzero;"/>
        </g>
        <g transform="matrix(63.4759,0,0,63.4759,498.791,131.129)">
            <path d="M0.215,0.01C0.188,0.01 0.165,0.005 0.143,-0.004C0.122,-0.013 0.103,-0.026 0.088,-0.043C0.072,-0.06 0.06,-0.081 0.052,-0.105C0.043,-0.13 0.039,-0.158 0.039,-0.19C0.039,-0.221 0.043,-0.248 0.051,-0.273C0.059,-0.297 0.071,-0.318 0.086,-0.335C0.101,-0.352 0.119,-0.365 0.139,-0.375C0.16,-0.384 0.182,-0.388 0.208,-0.388C0.233,-0.388 0.257,-0.384 0.277,-0.375C0.298,-0.365 0.316,-0.352 0.331,-0.335C0.345,-0.318 0.356,-0.297 0.364,-0.273C0.372,-0.248 0.376,-0.22 0.376,-0.189L0.376,-0.181L0.078,-0.181C0.08,-0.155 0.085,-0.133 0.092,-0.114C0.1,-0.095 0.11,-0.079 0.122,-0.067C0.134,-0.054 0.148,-0.045 0.163,-0.039C0.179,-0.032 0.196,-0.029 0.215,-0.029C0.228,-0.029 0.241,-0.031 0.254,-0.034C0.267,-0.037 0.279,-0.042 0.289,-0.048C0.3,-0.054 0.309,-0.062 0.316,-0.071C0.323,-0.08 0.327,-0.09 0.329,-0.102L0.367,-0.102C0.364,-0.084 0.357,-0.068 0.348,-0.054C0.339,-0.041 0.328,-0.029 0.314,-0.019C0.301,-0.01 0.286,-0.002 0.269,0.002C0.252,0.007 0.234,0.01 0.215,0.01ZM0.336,-0.22C0.33,-0.263 0.315,-0.295 0.292,-0.317C0.269,-0.338 0.241,-0.349 0.208,-0.349C0.191,-0.349 0.175,-0.347 0.161,-0.341C0.147,-0.336 0.134,-0.328 0.123,-0.317C0.112,-0.307 0.102,-0.293 0.094,-0.277C0.087,-0.261 0.081,-0.242 0.078,-0.22L0.336,-0.22Z" style="fill:rgb(139,53,119);fill-rule:nonzero;"/>
        </g>
        <g transform="matrix(63.4759,0,0,63.4759,525.136,131.129)">
            <path d="M0.237,-0.348C0.233,-0.349 0.229,-0.349 0.225,-0.349L0.211,-0.349C0.2,-0.349 0.189,-0.347 0.179,-0.342C0.168,-0.338 0.158,-0.332 0.149,-0.324C0.139,-0.317 0.131,-0.309 0.123,-0.3C0.114,-0.29 0.107,-0.281 0.102,-0.271L0.102,-0L0.063,-0L0.063,-0.378L0.102,-0.378L0.102,-0.326C0.113,-0.339 0.124,-0.35 0.135,-0.358C0.145,-0.366 0.156,-0.372 0.166,-0.377C0.177,-0.382 0.186,-0.385 0.196,-0.386C0.205,-0.387 0.214,-0.388 0.222,-0.388C0.224,-0.388 0.227,-0.388 0.229,-0.388C0.231,-0.388 0.234,-0.388 0.237,-0.387L0.237,-0.348Z" style="fill:rgb(139,53,119);fill-rule:nonzero;"/>
        </g>
        <g transform="matrix(63.4759,0,0,63.4759,540.912,131.129)">
            <path d="M0.188,0.01C0.096,0.01 0.045,-0.028 0.037,-0.102L0.076,-0.102C0.079,-0.079 0.09,-0.061 0.108,-0.049C0.126,-0.036 0.153,-0.029 0.188,-0.029C0.205,-0.029 0.22,-0.031 0.233,-0.035C0.246,-0.039 0.257,-0.044 0.266,-0.05C0.274,-0.056 0.281,-0.064 0.285,-0.073C0.289,-0.082 0.292,-0.091 0.292,-0.101C0.292,-0.111 0.29,-0.12 0.286,-0.127C0.283,-0.134 0.277,-0.141 0.268,-0.146C0.259,-0.152 0.247,-0.158 0.231,-0.163C0.216,-0.169 0.196,-0.174 0.172,-0.181C0.151,-0.186 0.133,-0.191 0.117,-0.197C0.101,-0.202 0.088,-0.209 0.077,-0.217C0.066,-0.225 0.058,-0.235 0.052,-0.247C0.047,-0.258 0.044,-0.273 0.044,-0.29C0.044,-0.305 0.047,-0.319 0.053,-0.331C0.06,-0.343 0.069,-0.353 0.08,-0.362C0.091,-0.37 0.105,-0.377 0.122,-0.381C0.138,-0.386 0.156,-0.388 0.176,-0.388C0.221,-0.388 0.255,-0.381 0.278,-0.365C0.301,-0.35 0.314,-0.326 0.317,-0.294L0.277,-0.294C0.275,-0.313 0.266,-0.327 0.25,-0.336C0.235,-0.345 0.212,-0.349 0.181,-0.349C0.167,-0.349 0.154,-0.348 0.142,-0.345C0.13,-0.343 0.119,-0.339 0.111,-0.334C0.102,-0.329 0.095,-0.322 0.09,-0.315C0.085,-0.307 0.083,-0.298 0.083,-0.289C0.083,-0.283 0.084,-0.277 0.086,-0.271C0.088,-0.266 0.093,-0.26 0.101,-0.253C0.109,-0.247 0.121,-0.241 0.137,-0.235C0.153,-0.228 0.174,-0.222 0.202,-0.215C0.224,-0.209 0.243,-0.204 0.259,-0.198C0.275,-0.191 0.288,-0.184 0.299,-0.176C0.31,-0.168 0.318,-0.158 0.323,-0.147C0.328,-0.136 0.331,-0.123 0.331,-0.108C0.331,-0.091 0.327,-0.076 0.321,-0.061C0.314,-0.047 0.304,-0.034 0.292,-0.024C0.28,-0.014 0.265,-0.005 0.248,0.001C0.23,0.007 0.21,0.01 0.188,0.01Z" style="fill:rgb(139,53,119);fill-rule:nonzero;"/>
        </g>
    </g>
    <g transform="matrix(0.916743,0,0,0.907615,16.0768,-63.2367)">
        <path d="M277.837,184.217L349.903,184.217" style="fill:none;stroke:rgb(139,53,119);stroke-width:18.27px;"/>
    </g>
    <g transform="matrix(3.83397,0,0,3.83397,-461.426,-539.562)">
        <path d="M130.192,142L137.385,156.385L123,156.385L130.192,142Z" style="fill:rgb(52,136,136);"/>
    </g>
    <g transform="matrix(4.5959,0,0,4.1713,-748.719,-623.303)">
        <path d="M197.23,158.304C198.027,158.31 203.679,158.308 207.842,158.307C210.334,158.308 212.354,160.535 212.354,163.281C212.354,164.802 212.354,166.493 212.354,168.088C212.354,169.748 211.755,171.341 210.689,172.515C209.623,173.69 208.178,174.35 206.67,174.35L197.23,174.35" style="fill:none;stroke:rgb(139,53,119);stroke-width:3.8px;stroke-linecap:round;"/>
    </g>
    <g transform="matrix(4.5959,0,0,4.1713,-748.719,-552.386)">
        <path d="M197.23,157.348C198.009,157.353 203.432,157.352 207.564,157.351C210.21,157.353 212.354,159.717 212.354,162.632C212.354,164.341 212.354,166.239 212.354,167.959C212.354,170.96 210.145,173.393 207.421,173.393L197.726,173.393" style="fill:none;stroke:rgb(139,53,119);stroke-width:3.8px;stroke-linecap:round;"/>
    </g>
    <g transform="matrix(4.5959,0,0,4.1713,-773.891,-623.303)">
        <path d="M226,190.395L226,159.413C226,159.119 226.106,158.837 226.295,158.629C226.483,158.421 226.739,158.304 227.006,158.304C230.468,158.304 241.68,158.304 241.68,158.304" style="fill:none;stroke:rgb(139,53,119);stroke-width:3.8px;"/>
    </g>
    <g transform="matrix(4.5959,0,0,4.1713,-748.719,-623.303)">
        <path d="M197.23,158.304L197.23,190.395" style="fill:none;stroke:rgb(139,53,119);stroke-width:3.8px;stroke-linecap:round;"/>
    </g>
    <g transform="matrix(4.7377,0,0,4.7377,-579.085,-672.754)">
        <path d="M130.192,142L137.385,156.385L123,156.385L130.192,142Z" style="fill:rgb(139,53,119);"/>
    </g>
    <g transform="matrix(4.5959,0,0,4.5959,-1211.47,-690.812)">
        <path d="M271.808,158.368C271.808,158.368 279.273,158.447 284.639,158.504C287.609,158.535 290,160.952 290,163.922L290,170.957C290,172.53 289.375,174.039 288.262,175.152C287.15,176.265 285.641,176.89 284.067,176.89L274.766,176.89C273.773,176.89 272.876,177.48 272.483,178.391C272.09,179.303 272.277,180.361 272.958,181.082C276.659,185.003 282.041,190.704 284.955,193.791C286.27,195.184 288.101,195.973 290.016,195.973C313.548,195.973 467.503,195.973 467.503,195.973" style="fill:none;stroke:rgb(139,53,119);stroke-width:3.63px;stroke-linecap:butt;"/>
    </g>
    <g transform="matrix(4.65807,0,0,4.65807,222.48,-613.288)">
        <rect x="151" y="170" width="13" height="13" style="fill:rgb(139,53,119);"/>
    </g>
</svg>
